<mxfile host="app.diagrams.net" modified="2020-12-03T09:10:48.768Z" agent="5.0 (Macintosh; Intel Mac OS X 10_15_6) AppleWebKit/537.36 (KHTML, like Gecko) Chrome/86.0.4240.183 Safari/537.36" etag="vtssO0T3b10AUaJ02Glu" version="13.10.1" type="github">
  <diagram id="C5RBs43oDa-KdzZeNtuy" name="Page-1">
    <mxGraphModel dx="2965" dy="1368" grid="1" gridSize="10" guides="1" tooltips="1" connect="1" arrows="1" fold="1" page="1" pageScale="1" pageWidth="827" pageHeight="1169" math="0" shadow="0">
      <root>
        <mxCell id="WIyWlLk6GJQsqaUBKTNV-0" />
        <mxCell id="WIyWlLk6GJQsqaUBKTNV-1" parent="WIyWlLk6GJQsqaUBKTNV-0" />
        <mxCell id="mBq-_NJuJj3De-6gyGRU-94" value="" style="edgeStyle=orthogonalEdgeStyle;rounded=0;orthogonalLoop=1;jettySize=auto;html=1;" edge="1" parent="WIyWlLk6GJQsqaUBKTNV-1" source="mBq-_NJuJj3De-6gyGRU-77" target="mBq-_NJuJj3De-6gyGRU-93">
          <mxGeometry relative="1" as="geometry" />
        </mxCell>
        <mxCell id="mBq-_NJuJj3De-6gyGRU-77" value="专属班消息队列&lt;br&gt;（此逻辑确认不维护）" style="rounded=1;whiteSpace=wrap;html=1;shadow=1;fillColor=#FFCCCC;arcSize=18;" vertex="1" parent="WIyWlLk6GJQsqaUBKTNV-1">
          <mxGeometry x="1345" y="1759" width="140" height="61" as="geometry" />
        </mxCell>
        <mxCell id="c8h9RsbaAIV6zPXawKrJ-4" style="edgeStyle=orthogonalEdgeStyle;rounded=0;orthogonalLoop=1;jettySize=auto;html=1;" parent="WIyWlLk6GJQsqaUBKTNV-1" source="WIyWlLk6GJQsqaUBKTNV-3" target="c8h9RsbaAIV6zPXawKrJ-2" edge="1">
          <mxGeometry relative="1" as="geometry" />
        </mxCell>
        <mxCell id="WIyWlLk6GJQsqaUBKTNV-3" value="&lt;div&gt;&lt;span&gt;入参校验：&lt;/span&gt;&lt;span style=&quot;color: rgba(0 , 0 , 0 , 0.847)&quot;&gt;主要参数：&lt;/span&gt;&lt;/div&gt;&lt;div style=&quot;text-align: left ; color: rgba(0 , 0 , 0 , 0.847)&quot;&gt;stu_cou_id，stu_id，&lt;/div&gt;&lt;div style=&quot;text-align: left ; color: rgba(0 , 0 , 0 , 0.847)&quot;&gt;course_id （目标课程）&lt;/div&gt;&lt;div style=&quot;text-align: left ; color: rgba(0 , 0 , 0 , 0.847)&quot;&gt;class_id （目标班级）&lt;/div&gt;&lt;div style=&quot;text-align: left ; color: rgba(0 , 0 , 0 , 0.847)&quot;&gt;reason（调换原因）&lt;/div&gt;" style="rounded=1;whiteSpace=wrap;html=1;fontSize=12;glass=0;strokeWidth=1;shadow=0;align=center;" parent="WIyWlLk6GJQsqaUBKTNV-1" vertex="1">
          <mxGeometry x="258" y="139" width="160" height="110" as="geometry" />
        </mxCell>
        <mxCell id="c8h9RsbaAIV6zPXawKrJ-0" value="&lt;font style=&quot;font-size: 36px&quot;&gt;同大纲调课流程&lt;/font&gt;" style="text;html=1;align=center;verticalAlign=middle;resizable=0;points=[];autosize=1;" parent="WIyWlLk6GJQsqaUBKTNV-1" vertex="1">
          <mxGeometry x="470" y="40" width="270" height="30" as="geometry" />
        </mxCell>
        <mxCell id="c8h9RsbaAIV6zPXawKrJ-6" style="edgeStyle=orthogonalEdgeStyle;rounded=0;orthogonalLoop=1;jettySize=auto;html=1;" parent="WIyWlLk6GJQsqaUBKTNV-1" source="c8h9RsbaAIV6zPXawKrJ-2" target="c8h9RsbaAIV6zPXawKrJ-3" edge="1">
          <mxGeometry relative="1" as="geometry" />
        </mxCell>
        <mxCell id="c8h9RsbaAIV6zPXawKrJ-32" style="edgeStyle=orthogonalEdgeStyle;rounded=0;orthogonalLoop=1;jettySize=auto;html=1;exitX=1;exitY=0.5;exitDx=0;exitDy=0;" parent="WIyWlLk6GJQsqaUBKTNV-1" source="c8h9RsbaAIV6zPXawKrJ-2" target="c8h9RsbaAIV6zPXawKrJ-5" edge="1">
          <mxGeometry relative="1" as="geometry" />
        </mxCell>
        <mxCell id="c8h9RsbaAIV6zPXawKrJ-2" value="组织生成必要的参数&lt;br&gt;如1，要调出的场次，&lt;br&gt;2，当前学生课程信息，&lt;br&gt;3，要临调的场次，&lt;br&gt;4，用户在学课程，&lt;br&gt;等等" style="rounded=1;whiteSpace=wrap;html=1;fontSize=12;glass=0;strokeWidth=1;shadow=0;align=center;" parent="WIyWlLk6GJQsqaUBKTNV-1" vertex="1">
          <mxGeometry x="258" y="309" width="160" height="110" as="geometry" />
        </mxCell>
        <mxCell id="c8h9RsbaAIV6zPXawKrJ-8" value="验证通过" style="edgeStyle=orthogonalEdgeStyle;rounded=0;orthogonalLoop=1;jettySize=auto;html=1;" parent="WIyWlLk6GJQsqaUBKTNV-1" source="c8h9RsbaAIV6zPXawKrJ-3" target="c8h9RsbaAIV6zPXawKrJ-7" edge="1">
          <mxGeometry relative="1" as="geometry">
            <Array as="points">
              <mxPoint x="338" y="579" />
              <mxPoint x="338" y="579" />
            </Array>
          </mxGeometry>
        </mxCell>
        <mxCell id="c8h9RsbaAIV6zPXawKrJ-3" value="&lt;div style=&quot;text-align: center&quot;&gt;&lt;span style=&quot;text-align: left&quot;&gt;验证调课规则，具体见同大纲调课规则&lt;/span&gt;&lt;br&gt;&lt;/div&gt;" style="rounded=1;whiteSpace=wrap;html=1;fontSize=12;glass=0;strokeWidth=1;shadow=0;align=center;" parent="WIyWlLk6GJQsqaUBKTNV-1" vertex="1">
          <mxGeometry x="223" y="489" width="230" height="50" as="geometry" />
        </mxCell>
        <mxCell id="c8h9RsbaAIV6zPXawKrJ-5" value="1，用户在学课程，没有从redis取&lt;br&gt;2，firstPlan属性应该已经废弃&lt;br&gt;&lt;div&gt;&lt;span&gt;3，tmpchangeplan交作业是否可优化&lt;/span&gt;&lt;/div&gt;" style="text;html=1;strokeColor=none;fillColor=#E6E6E6;align=left;verticalAlign=middle;whiteSpace=wrap;rounded=0;" parent="WIyWlLk6GJQsqaUBKTNV-1" vertex="1">
          <mxGeometry x="453" y="339" width="229" height="50" as="geometry" />
        </mxCell>
        <mxCell id="c8h9RsbaAIV6zPXawKrJ-9" style="edgeStyle=orthogonalEdgeStyle;rounded=0;orthogonalLoop=1;jettySize=auto;html=1;" parent="WIyWlLk6GJQsqaUBKTNV-1" source="c8h9RsbaAIV6zPXawKrJ-7" target="c8h9RsbaAIV6zPXawKrJ-10" edge="1">
          <mxGeometry relative="1" as="geometry">
            <mxPoint x="338" y="769" as="targetPoint" />
          </mxGeometry>
        </mxCell>
        <mxCell id="c8h9RsbaAIV6zPXawKrJ-7" value="&lt;div style=&quot;text-align: left&quot;&gt;验证目标课程推荐班信息&lt;/div&gt;" style="rounded=1;whiteSpace=wrap;html=1;fontSize=12;glass=0;strokeWidth=1;shadow=0;align=center;" parent="WIyWlLk6GJQsqaUBKTNV-1" vertex="1">
          <mxGeometry x="223" y="629" width="230" height="50" as="geometry" />
        </mxCell>
        <mxCell id="c8h9RsbaAIV6zPXawKrJ-12" style="edgeStyle=orthogonalEdgeStyle;rounded=0;orthogonalLoop=1;jettySize=auto;html=1;entryX=0.5;entryY=0;entryDx=0;entryDy=0;" parent="WIyWlLk6GJQsqaUBKTNV-1" source="c8h9RsbaAIV6zPXawKrJ-10" target="c8h9RsbaAIV6zPXawKrJ-16" edge="1">
          <mxGeometry relative="1" as="geometry">
            <mxPoint x="338" y="919" as="targetPoint" />
          </mxGeometry>
        </mxCell>
        <mxCell id="c8h9RsbaAIV6zPXawKrJ-15" value="前台" style="edgeLabel;html=1;align=center;verticalAlign=middle;resizable=0;points=[];" parent="c8h9RsbaAIV6zPXawKrJ-12" vertex="1" connectable="0">
          <mxGeometry y="2" relative="1" as="geometry">
            <mxPoint as="offset" />
          </mxGeometry>
        </mxCell>
        <mxCell id="c8h9RsbaAIV6zPXawKrJ-13" value="admin后台" style="edgeStyle=orthogonalEdgeStyle;rounded=0;orthogonalLoop=1;jettySize=auto;html=1;exitX=1;exitY=0.5;exitDx=0;exitDy=0;entryX=0;entryY=0.5;entryDx=0;entryDy=0;" parent="WIyWlLk6GJQsqaUBKTNV-1" source="c8h9RsbaAIV6zPXawKrJ-10" target="c8h9RsbaAIV6zPXawKrJ-14" edge="1">
          <mxGeometry relative="1" as="geometry">
            <mxPoint x="538" y="799" as="targetPoint" />
          </mxGeometry>
        </mxCell>
        <mxCell id="c8h9RsbaAIV6zPXawKrJ-31" style="edgeStyle=orthogonalEdgeStyle;rounded=0;orthogonalLoop=1;jettySize=auto;html=1;exitX=0;exitY=0.5;exitDx=0;exitDy=0;entryX=0.5;entryY=0;entryDx=0;entryDy=0;" parent="WIyWlLk6GJQsqaUBKTNV-1" source="c8h9RsbaAIV6zPXawKrJ-10" target="c8h9RsbaAIV6zPXawKrJ-30" edge="1">
          <mxGeometry relative="1" as="geometry" />
        </mxCell>
        <mxCell id="c8h9RsbaAIV6zPXawKrJ-10" value="判断opsource类型" style="rhombus;whiteSpace=wrap;html=1;" parent="WIyWlLk6GJQsqaUBKTNV-1" vertex="1">
          <mxGeometry x="233" y="739" width="210" height="80" as="geometry" />
        </mxCell>
        <mxCell id="c8h9RsbaAIV6zPXawKrJ-20" style="edgeStyle=orthogonalEdgeStyle;rounded=0;orthogonalLoop=1;jettySize=auto;html=1;entryX=1;entryY=0.5;entryDx=0;entryDy=0;" parent="WIyWlLk6GJQsqaUBKTNV-1" source="c8h9RsbaAIV6zPXawKrJ-14" target="c8h9RsbaAIV6zPXawKrJ-19" edge="1">
          <mxGeometry relative="1" as="geometry">
            <Array as="points">
              <mxPoint x="728" y="779" />
              <mxPoint x="728" y="1079" />
            </Array>
          </mxGeometry>
        </mxCell>
        <mxCell id="c8h9RsbaAIV6zPXawKrJ-26" value="有名额" style="edgeLabel;html=1;align=center;verticalAlign=middle;resizable=0;points=[];" parent="c8h9RsbaAIV6zPXawKrJ-20" vertex="1" connectable="0">
          <mxGeometry x="0.5234" y="3" relative="1" as="geometry">
            <mxPoint as="offset" />
          </mxGeometry>
        </mxCell>
        <mxCell id="c8h9RsbaAIV6zPXawKrJ-23" style="edgeStyle=orthogonalEdgeStyle;rounded=0;orthogonalLoop=1;jettySize=auto;html=1;entryX=0.5;entryY=0;entryDx=0;entryDy=0;" parent="WIyWlLk6GJQsqaUBKTNV-1" source="c8h9RsbaAIV6zPXawKrJ-14" target="c8h9RsbaAIV6zPXawKrJ-22" edge="1">
          <mxGeometry relative="1" as="geometry" />
        </mxCell>
        <mxCell id="c8h9RsbaAIV6zPXawKrJ-24" value="无名额" style="edgeLabel;html=1;align=center;verticalAlign=middle;resizable=0;points=[];" parent="c8h9RsbaAIV6zPXawKrJ-23" vertex="1" connectable="0">
          <mxGeometry x="-0.2333" y="-1" relative="1" as="geometry">
            <mxPoint as="offset" />
          </mxGeometry>
        </mxCell>
        <mxCell id="c8h9RsbaAIV6zPXawKrJ-14" value="验证班级剩余名额" style="rounded=1;whiteSpace=wrap;html=1;" parent="WIyWlLk6GJQsqaUBKTNV-1" vertex="1">
          <mxGeometry x="538" y="749" width="120" height="60" as="geometry" />
        </mxCell>
        <mxCell id="c8h9RsbaAIV6zPXawKrJ-21" style="edgeStyle=orthogonalEdgeStyle;rounded=0;orthogonalLoop=1;jettySize=auto;html=1;entryX=0;entryY=0.5;entryDx=0;entryDy=0;" parent="WIyWlLk6GJQsqaUBKTNV-1" source="c8h9RsbaAIV6zPXawKrJ-16" target="c8h9RsbaAIV6zPXawKrJ-22" edge="1">
          <mxGeometry relative="1" as="geometry">
            <mxPoint x="458" y="929" as="targetPoint" />
          </mxGeometry>
        </mxCell>
        <mxCell id="c8h9RsbaAIV6zPXawKrJ-27" value="推班失败" style="edgeLabel;html=1;align=center;verticalAlign=middle;resizable=0;points=[];" parent="c8h9RsbaAIV6zPXawKrJ-21" vertex="1" connectable="0">
          <mxGeometry x="-0.2875" y="-2" relative="1" as="geometry">
            <mxPoint as="offset" />
          </mxGeometry>
        </mxCell>
        <mxCell id="c8h9RsbaAIV6zPXawKrJ-28" value="推班成功" style="edgeStyle=orthogonalEdgeStyle;rounded=0;orthogonalLoop=1;jettySize=auto;html=1;" parent="WIyWlLk6GJQsqaUBKTNV-1" source="c8h9RsbaAIV6zPXawKrJ-16" target="c8h9RsbaAIV6zPXawKrJ-19" edge="1">
          <mxGeometry relative="1" as="geometry" />
        </mxCell>
        <mxCell id="c8h9RsbaAIV6zPXawKrJ-16" value="重新获取课推荐班" style="rounded=1;whiteSpace=wrap;html=1;" parent="WIyWlLk6GJQsqaUBKTNV-1" vertex="1">
          <mxGeometry x="278" y="899" width="120" height="60" as="geometry" />
        </mxCell>
        <mxCell id="mBq-_NJuJj3De-6gyGRU-120" style="edgeStyle=orthogonalEdgeStyle;rounded=0;orthogonalLoop=1;jettySize=auto;html=1;" edge="1" parent="WIyWlLk6GJQsqaUBKTNV-1" source="c8h9RsbaAIV6zPXawKrJ-19" target="mBq-_NJuJj3De-6gyGRU-122">
          <mxGeometry relative="1" as="geometry">
            <mxPoint x="338" y="1169" as="targetPoint" />
          </mxGeometry>
        </mxCell>
        <mxCell id="mBq-_NJuJj3De-6gyGRU-124" style="edgeStyle=orthogonalEdgeStyle;rounded=0;orthogonalLoop=1;jettySize=auto;html=1;" edge="1" parent="WIyWlLk6GJQsqaUBKTNV-1" source="c8h9RsbaAIV6zPXawKrJ-19" target="mBq-_NJuJj3De-6gyGRU-123">
          <mxGeometry relative="1" as="geometry" />
        </mxCell>
        <mxCell id="c8h9RsbaAIV6zPXawKrJ-19" value="确认未开始的场次" style="rounded=1;whiteSpace=wrap;html=1;" parent="WIyWlLk6GJQsqaUBKTNV-1" vertex="1">
          <mxGeometry x="278" y="1049" width="120" height="60" as="geometry" />
        </mxCell>
        <mxCell id="c8h9RsbaAIV6zPXawKrJ-22" value="调课失败，结束" style="ellipse;whiteSpace=wrap;html=1;" parent="WIyWlLk6GJQsqaUBKTNV-1" vertex="1">
          <mxGeometry x="538" y="889" width="120" height="80" as="geometry" />
        </mxCell>
        <mxCell id="c8h9RsbaAIV6zPXawKrJ-30" value="&lt;div style=&quot;text-align: left&quot;&gt;此处前台，客服后台，&lt;/div&gt;&lt;div style=&quot;text-align: left&quot;&gt;admin后台都传入和目标班级ID，此处逻辑可以改成相同逻辑&lt;/div&gt;" style="text;html=1;strokeColor=none;fillColor=#E6E6E6;align=center;verticalAlign=middle;whiteSpace=wrap;rounded=0;" parent="WIyWlLk6GJQsqaUBKTNV-1" vertex="1">
          <mxGeometry x="98" y="799" width="135" height="70" as="geometry" />
        </mxCell>
        <mxCell id="mBq-_NJuJj3De-6gyGRU-20" style="edgeStyle=orthogonalEdgeStyle;rounded=0;orthogonalLoop=1;jettySize=auto;html=1;exitX=0.5;exitY=1;exitDx=0;exitDy=0;entryX=1;entryY=0.5;entryDx=0;entryDy=0;" edge="1" parent="WIyWlLk6GJQsqaUBKTNV-1" source="mBq-_NJuJj3De-6gyGRU-10" target="mBq-_NJuJj3De-6gyGRU-17">
          <mxGeometry relative="1" as="geometry" />
        </mxCell>
        <mxCell id="mBq-_NJuJj3De-6gyGRU-10" value="前台调课记录调课次数（redis缓存）" style="rounded=1;whiteSpace=wrap;html=1;" vertex="1" parent="WIyWlLk6GJQsqaUBKTNV-1">
          <mxGeometry x="1582" y="2930" width="120" height="60" as="geometry" />
        </mxCell>
        <mxCell id="mBq-_NJuJj3De-6gyGRU-22" style="edgeStyle=orthogonalEdgeStyle;rounded=0;orthogonalLoop=1;jettySize=auto;html=1;exitX=0.5;exitY=1;exitDx=0;exitDy=0;" edge="1" parent="WIyWlLk6GJQsqaUBKTNV-1" source="mBq-_NJuJj3De-6gyGRU-11" target="mBq-_NJuJj3De-6gyGRU-21">
          <mxGeometry relative="1" as="geometry" />
        </mxCell>
        <mxCell id="mBq-_NJuJj3De-6gyGRU-11" value="调入班级日志" style="rounded=1;whiteSpace=wrap;html=1;" vertex="1" parent="WIyWlLk6GJQsqaUBKTNV-1">
          <mxGeometry x="1360" y="3230" width="120" height="60" as="geometry" />
        </mxCell>
        <mxCell id="mBq-_NJuJj3De-6gyGRU-13" style="edgeStyle=orthogonalEdgeStyle;rounded=0;orthogonalLoop=1;jettySize=auto;html=1;" edge="1" parent="WIyWlLk6GJQsqaUBKTNV-1" source="mBq-_NJuJj3De-6gyGRU-12" target="mBq-_NJuJj3De-6gyGRU-10">
          <mxGeometry relative="1" as="geometry" />
        </mxCell>
        <mxCell id="mBq-_NJuJj3De-6gyGRU-14" value="yes" style="edgeLabel;html=1;align=center;verticalAlign=middle;resizable=0;points=[];" vertex="1" connectable="0" parent="mBq-_NJuJj3De-6gyGRU-13">
          <mxGeometry x="-0.1818" y="-2" relative="1" as="geometry">
            <mxPoint as="offset" />
          </mxGeometry>
        </mxCell>
        <mxCell id="mBq-_NJuJj3De-6gyGRU-15" style="edgeStyle=orthogonalEdgeStyle;rounded=0;orthogonalLoop=1;jettySize=auto;html=1;exitX=0.5;exitY=1;exitDx=0;exitDy=0;entryX=0.5;entryY=0;entryDx=0;entryDy=0;" edge="1" parent="WIyWlLk6GJQsqaUBKTNV-1" source="mBq-_NJuJj3De-6gyGRU-12" target="mBq-_NJuJj3De-6gyGRU-17">
          <mxGeometry relative="1" as="geometry">
            <mxPoint x="1408" y="3070" as="targetPoint" />
          </mxGeometry>
        </mxCell>
        <mxCell id="mBq-_NJuJj3De-6gyGRU-19" value="no" style="edgeLabel;html=1;align=center;verticalAlign=middle;resizable=0;points=[];" vertex="1" connectable="0" parent="mBq-_NJuJj3De-6gyGRU-15">
          <mxGeometry x="0.0286" relative="1" as="geometry">
            <mxPoint as="offset" />
          </mxGeometry>
        </mxCell>
        <mxCell id="mBq-_NJuJj3De-6gyGRU-12" value="是否是前台调课" style="rhombus;whiteSpace=wrap;html=1;" vertex="1" parent="WIyWlLk6GJQsqaUBKTNV-1">
          <mxGeometry x="1370" y="2920" width="100" height="80" as="geometry" />
        </mxCell>
        <mxCell id="mBq-_NJuJj3De-6gyGRU-23" style="edgeStyle=orthogonalEdgeStyle;rounded=0;orthogonalLoop=1;jettySize=auto;html=1;exitX=0.5;exitY=1;exitDx=0;exitDy=0;" edge="1" parent="WIyWlLk6GJQsqaUBKTNV-1" source="mBq-_NJuJj3De-6gyGRU-17" target="mBq-_NJuJj3De-6gyGRU-11">
          <mxGeometry relative="1" as="geometry" />
        </mxCell>
        <mxCell id="mBq-_NJuJj3De-6gyGRU-17" value="调出班级日志" style="rounded=1;whiteSpace=wrap;html=1;" vertex="1" parent="WIyWlLk6GJQsqaUBKTNV-1">
          <mxGeometry x="1360" y="3097" width="120" height="60" as="geometry" />
        </mxCell>
        <mxCell id="mBq-_NJuJj3De-6gyGRU-21" value="同大纲调课结束" style="ellipse;whiteSpace=wrap;html=1;aspect=fixed;" vertex="1" parent="WIyWlLk6GJQsqaUBKTNV-1">
          <mxGeometry x="1375" y="3370" width="90" height="90" as="geometry" />
        </mxCell>
        <mxCell id="mBq-_NJuJj3De-6gyGRU-52" style="edgeStyle=orthogonalEdgeStyle;rounded=0;orthogonalLoop=1;jettySize=auto;html=1;entryX=0.419;entryY=1.067;entryDx=0;entryDy=0;entryPerimeter=0;" edge="1" parent="WIyWlLk6GJQsqaUBKTNV-1" source="mBq-_NJuJj3De-6gyGRU-27" target="mBq-_NJuJj3De-6gyGRU-51">
          <mxGeometry relative="1" as="geometry">
            <Array as="points">
              <mxPoint x="1223" y="490" />
            </Array>
          </mxGeometry>
        </mxCell>
        <mxCell id="mBq-_NJuJj3De-6gyGRU-53" style="edgeStyle=orthogonalEdgeStyle;rounded=0;orthogonalLoop=1;jettySize=auto;html=1;" edge="1" parent="WIyWlLk6GJQsqaUBKTNV-1" source="mBq-_NJuJj3De-6gyGRU-27" target="mBq-_NJuJj3De-6gyGRU-39">
          <mxGeometry relative="1" as="geometry" />
        </mxCell>
        <mxCell id="mBq-_NJuJj3De-6gyGRU-27" value="维护学生班级缓存：&lt;br&gt;hash（&lt;span style=&quot;color: rgb(42 , 161 , 152) ; background-color: rgb(253 , 246 , 227) ; font-family: &amp;#34;menlo&amp;#34; ; font-size: 9.8pt&quot;&gt;stu_course_class_info_%d&lt;/span&gt;&lt;span&gt;）&lt;/span&gt;" style="rounded=1;whiteSpace=wrap;html=1;" vertex="1" parent="WIyWlLk6GJQsqaUBKTNV-1">
          <mxGeometry x="1305" y="450" width="220" height="80" as="geometry" />
        </mxCell>
        <mxCell id="mBq-_NJuJj3De-6gyGRU-36" style="edgeStyle=orthogonalEdgeStyle;rounded=0;orthogonalLoop=1;jettySize=auto;html=1;exitX=0.5;exitY=1;exitDx=0;exitDy=0;" edge="1" parent="WIyWlLk6GJQsqaUBKTNV-1" source="mBq-_NJuJj3De-6gyGRU-37" target="mBq-_NJuJj3De-6gyGRU-63">
          <mxGeometry relative="1" as="geometry">
            <mxPoint x="1415" y="910" as="targetPoint" />
          </mxGeometry>
        </mxCell>
        <mxCell id="mBq-_NJuJj3De-6gyGRU-58" style="edgeStyle=orthogonalEdgeStyle;rounded=0;orthogonalLoop=1;jettySize=auto;html=1;" edge="1" parent="WIyWlLk6GJQsqaUBKTNV-1" source="mBq-_NJuJj3De-6gyGRU-37" target="mBq-_NJuJj3De-6gyGRU-135">
          <mxGeometry relative="1" as="geometry">
            <mxPoint x="1575" y="780.5" as="targetPoint" />
          </mxGeometry>
        </mxCell>
        <mxCell id="mBq-_NJuJj3De-6gyGRU-61" style="edgeStyle=orthogonalEdgeStyle;rounded=0;orthogonalLoop=1;jettySize=auto;html=1;entryX=1;entryY=0.525;entryDx=0;entryDy=0;entryPerimeter=0;" edge="1" parent="WIyWlLk6GJQsqaUBKTNV-1" source="mBq-_NJuJj3De-6gyGRU-37" target="mBq-_NJuJj3De-6gyGRU-60">
          <mxGeometry relative="1" as="geometry" />
        </mxCell>
        <mxCell id="mBq-_NJuJj3De-6gyGRU-37" value="删除用户场次信息缓存" style="rounded=1;whiteSpace=wrap;html=1;" vertex="1" parent="WIyWlLk6GJQsqaUBKTNV-1">
          <mxGeometry x="1345" y="750" width="140" height="61" as="geometry" />
        </mxCell>
        <mxCell id="mBq-_NJuJj3De-6gyGRU-38" style="edgeStyle=orthogonalEdgeStyle;rounded=0;orthogonalLoop=1;jettySize=auto;html=1;exitX=0.5;exitY=1;exitDx=0;exitDy=0;" edge="1" parent="WIyWlLk6GJQsqaUBKTNV-1" source="mBq-_NJuJj3De-6gyGRU-39" target="mBq-_NJuJj3De-6gyGRU-37">
          <mxGeometry relative="1" as="geometry" />
        </mxCell>
        <mxCell id="mBq-_NJuJj3De-6gyGRU-56" style="edgeStyle=orthogonalEdgeStyle;rounded=0;orthogonalLoop=1;jettySize=auto;html=1;exitX=0;exitY=0.5;exitDx=0;exitDy=0;entryX=0.483;entryY=1;entryDx=0;entryDy=0;entryPerimeter=0;" edge="1" parent="WIyWlLk6GJQsqaUBKTNV-1" source="mBq-_NJuJj3De-6gyGRU-39" target="mBq-_NJuJj3De-6gyGRU-55">
          <mxGeometry relative="1" as="geometry" />
        </mxCell>
        <mxCell id="mBq-_NJuJj3De-6gyGRU-39" value="更新用户场次表数据" style="rounded=1;whiteSpace=wrap;html=1;" vertex="1" parent="WIyWlLk6GJQsqaUBKTNV-1">
          <mxGeometry x="1355" y="630" width="120" height="60" as="geometry" />
        </mxCell>
        <mxCell id="mBq-_NJuJj3De-6gyGRU-49" style="edgeStyle=orthogonalEdgeStyle;rounded=0;orthogonalLoop=1;jettySize=auto;html=1;" edge="1" parent="WIyWlLk6GJQsqaUBKTNV-1" source="mBq-_NJuJj3De-6gyGRU-42" target="mBq-_NJuJj3De-6gyGRU-48">
          <mxGeometry relative="1" as="geometry" />
        </mxCell>
        <mxCell id="mBq-_NJuJj3De-6gyGRU-42" value="更新用户班级表；&lt;br&gt;&lt;div style=&quot;text-align: left&quot;&gt;course_id&lt;/div&gt;&lt;div style=&quot;text-align: left&quot;&gt;class_id&lt;/div&gt;&lt;div style=&quot;text-align: left&quot;&gt;team_id&lt;/div&gt;&lt;div style=&quot;text-align: left&quot;&gt;modify_time&lt;/div&gt;" style="rounded=1;whiteSpace=wrap;html=1;" vertex="1" parent="WIyWlLk6GJQsqaUBKTNV-1">
          <mxGeometry x="1350" y="150" width="130" height="90" as="geometry" />
        </mxCell>
        <mxCell id="mBq-_NJuJj3De-6gyGRU-50" style="edgeStyle=orthogonalEdgeStyle;rounded=0;orthogonalLoop=1;jettySize=auto;html=1;entryX=1;entryY=0.5;entryDx=0;entryDy=0;" edge="1" parent="WIyWlLk6GJQsqaUBKTNV-1" source="mBq-_NJuJj3De-6gyGRU-43" target="mBq-_NJuJj3De-6gyGRU-27">
          <mxGeometry relative="1" as="geometry">
            <Array as="points">
              <mxPoint x="1649" y="490" />
            </Array>
          </mxGeometry>
        </mxCell>
        <mxCell id="mBq-_NJuJj3De-6gyGRU-43" value="此部分数据走调场逻辑" style="rounded=1;whiteSpace=wrap;html=1;" vertex="1" parent="WIyWlLk6GJQsqaUBKTNV-1">
          <mxGeometry x="1582" y="290" width="133" height="60" as="geometry" />
        </mxCell>
        <mxCell id="mBq-_NJuJj3De-6gyGRU-44" style="edgeStyle=orthogonalEdgeStyle;rounded=0;orthogonalLoop=1;jettySize=auto;html=1;" edge="1" parent="WIyWlLk6GJQsqaUBKTNV-1" source="mBq-_NJuJj3De-6gyGRU-48" target="mBq-_NJuJj3De-6gyGRU-43">
          <mxGeometry relative="1" as="geometry" />
        </mxCell>
        <mxCell id="mBq-_NJuJj3De-6gyGRU-45" value="yes" style="edgeLabel;html=1;align=center;verticalAlign=middle;resizable=0;points=[];" vertex="1" connectable="0" parent="mBq-_NJuJj3De-6gyGRU-44">
          <mxGeometry x="-0.1818" y="-2" relative="1" as="geometry">
            <mxPoint as="offset" />
          </mxGeometry>
        </mxCell>
        <mxCell id="mBq-_NJuJj3De-6gyGRU-46" style="edgeStyle=orthogonalEdgeStyle;rounded=0;orthogonalLoop=1;jettySize=auto;html=1;exitX=0.5;exitY=1;exitDx=0;exitDy=0;entryX=0.5;entryY=0;entryDx=0;entryDy=0;" edge="1" parent="WIyWlLk6GJQsqaUBKTNV-1" source="mBq-_NJuJj3De-6gyGRU-48" target="mBq-_NJuJj3De-6gyGRU-27">
          <mxGeometry relative="1" as="geometry">
            <mxPoint x="1415" y="450" as="targetPoint" />
          </mxGeometry>
        </mxCell>
        <mxCell id="mBq-_NJuJj3De-6gyGRU-47" value="no" style="edgeLabel;html=1;align=center;verticalAlign=middle;resizable=0;points=[];" vertex="1" connectable="0" parent="mBq-_NJuJj3De-6gyGRU-46">
          <mxGeometry x="0.0286" relative="1" as="geometry">
            <mxPoint as="offset" />
          </mxGeometry>
        </mxCell>
        <mxCell id="mBq-_NJuJj3De-6gyGRU-48" value="是否是调课调场数据" style="rhombus;whiteSpace=wrap;html=1;" vertex="1" parent="WIyWlLk6GJQsqaUBKTNV-1">
          <mxGeometry x="1355" y="275" width="120" height="90" as="geometry" />
        </mxCell>
        <mxCell id="mBq-_NJuJj3De-6gyGRU-51" value="1，顺序是否应该放到上面&lt;br&gt;2，这个缓存是否还有用到，还用维护" style="text;html=1;align=left;verticalAlign=middle;resizable=0;points=[];autosize=1;fillColor=#FFF2CC;" vertex="1" parent="WIyWlLk6GJQsqaUBKTNV-1">
          <mxGeometry x="1135" y="390" width="210" height="30" as="geometry" />
        </mxCell>
        <mxCell id="mBq-_NJuJj3De-6gyGRU-55" value="&lt;pre style=&quot;background-color: #fdf6e3 ; color: #657b83 ; font-family: &amp;#34;menlo&amp;#34; ; font-size: 9.8pt&quot;&gt;&lt;span style=&quot;color: #2aa198&quot;&gt;根据条件，批量更新用户场次表数据：&lt;br&gt;&lt;/span&gt;&lt;span style=&quot;color: #2aa198&quot;&gt;WHERE `catalog_id` IN (&lt;/span&gt;&lt;span style=&quot;color: #268bd2&quot;&gt;$catalogIds&lt;/span&gt;&lt;span style=&quot;color: #2aa198&quot;&gt;)&lt;br&gt;&lt;/span&gt;&lt;span style=&quot;font-size: 9.8pt ; color: rgb(42 , 161 , 152)&quot;&gt;AND `stu_cou_id` = &lt;/span&gt;&lt;span style=&quot;font-size: 9.8pt ; color: rgb(38 , 139 , 210)&quot;&gt;$stuCouId&lt;/span&gt;&lt;/pre&gt;&lt;pre style=&quot;background-color: #fdf6e3 ; color: #657b83 ; font-family: &amp;#34;menlo&amp;#34; ; font-size: 9.8pt&quot;&gt;&lt;span style=&quot;font-size: 9.8pt ; color: rgb(38 , 139 , 210)&quot;&gt;用的update set case when&lt;/span&gt;&lt;/pre&gt;" style="text;html=1;align=left;verticalAlign=middle;resizable=0;points=[];autosize=1;" vertex="1" parent="WIyWlLk6GJQsqaUBKTNV-1">
          <mxGeometry x="1055" y="540" width="290" height="100" as="geometry" />
        </mxCell>
        <mxCell id="mBq-_NJuJj3De-6gyGRU-60" value="这几个缓存，目前开来应该也没太大用途" style="text;html=1;align=center;verticalAlign=middle;resizable=0;points=[];autosize=1;fillColor=#FFF2CC;" vertex="1" parent="WIyWlLk6GJQsqaUBKTNV-1">
          <mxGeometry x="1045" y="770" width="230" height="20" as="geometry" />
        </mxCell>
        <mxCell id="mBq-_NJuJj3De-6gyGRU-69" style="edgeStyle=orthogonalEdgeStyle;rounded=0;orthogonalLoop=1;jettySize=auto;html=1;" edge="1" parent="WIyWlLk6GJQsqaUBKTNV-1" source="mBq-_NJuJj3De-6gyGRU-63" target="mBq-_NJuJj3De-6gyGRU-64">
          <mxGeometry relative="1" as="geometry" />
        </mxCell>
        <mxCell id="mBq-_NJuJj3De-6gyGRU-63" value="记录调课日志，更新到数据库" style="rounded=1;whiteSpace=wrap;html=1;" vertex="1" parent="WIyWlLk6GJQsqaUBKTNV-1">
          <mxGeometry x="1345" y="905" width="140" height="61" as="geometry" />
        </mxCell>
        <mxCell id="mBq-_NJuJj3De-6gyGRU-70" style="edgeStyle=orthogonalEdgeStyle;rounded=0;orthogonalLoop=1;jettySize=auto;html=1;exitX=0.5;exitY=1;exitDx=0;exitDy=0;" edge="1" parent="WIyWlLk6GJQsqaUBKTNV-1" source="mBq-_NJuJj3De-6gyGRU-64" target="mBq-_NJuJj3De-6gyGRU-65">
          <mxGeometry relative="1" as="geometry" />
        </mxCell>
        <mxCell id="mBq-_NJuJj3De-6gyGRU-64" value="更新用户课程表的第一场和最后一场时间" style="rounded=1;whiteSpace=wrap;html=1;" vertex="1" parent="WIyWlLk6GJQsqaUBKTNV-1">
          <mxGeometry x="1345" y="1050" width="140" height="61" as="geometry" />
        </mxCell>
        <mxCell id="mBq-_NJuJj3De-6gyGRU-79" style="edgeStyle=orthogonalEdgeStyle;rounded=0;orthogonalLoop=1;jettySize=auto;html=1;" edge="1" parent="WIyWlLk6GJQsqaUBKTNV-1" source="mBq-_NJuJj3De-6gyGRU-65" target="mBq-_NJuJj3De-6gyGRU-66">
          <mxGeometry relative="1" as="geometry" />
        </mxCell>
        <mxCell id="mBq-_NJuJj3De-6gyGRU-133" style="edgeStyle=orthogonalEdgeStyle;rounded=0;orthogonalLoop=1;jettySize=auto;html=1;" edge="1" parent="WIyWlLk6GJQsqaUBKTNV-1" source="mBq-_NJuJj3De-6gyGRU-65" target="mBq-_NJuJj3De-6gyGRU-134">
          <mxGeometry relative="1" as="geometry">
            <mxPoint x="1610" y="1220.4999999999998" as="targetPoint" />
          </mxGeometry>
        </mxCell>
        <mxCell id="mBq-_NJuJj3De-6gyGRU-65" value="更新用户在学缓存" style="rounded=1;whiteSpace=wrap;html=1;" vertex="1" parent="WIyWlLk6GJQsqaUBKTNV-1">
          <mxGeometry x="1345" y="1190" width="140" height="61" as="geometry" />
        </mxCell>
        <mxCell id="mBq-_NJuJj3De-6gyGRU-81" style="edgeStyle=orthogonalEdgeStyle;rounded=0;orthogonalLoop=1;jettySize=auto;html=1;" edge="1" parent="WIyWlLk6GJQsqaUBKTNV-1" source="mBq-_NJuJj3De-6gyGRU-66" target="mBq-_NJuJj3De-6gyGRU-72">
          <mxGeometry relative="1" as="geometry" />
        </mxCell>
        <mxCell id="mBq-_NJuJj3De-6gyGRU-129" style="edgeStyle=orthogonalEdgeStyle;rounded=0;orthogonalLoop=1;jettySize=auto;html=1;" edge="1" parent="WIyWlLk6GJQsqaUBKTNV-1" source="mBq-_NJuJj3De-6gyGRU-66" target="mBq-_NJuJj3De-6gyGRU-82">
          <mxGeometry relative="1" as="geometry" />
        </mxCell>
        <mxCell id="mBq-_NJuJj3De-6gyGRU-66" value="维护班级小组之间的缓存" style="rounded=1;whiteSpace=wrap;html=1;" vertex="1" parent="WIyWlLk6GJQsqaUBKTNV-1">
          <mxGeometry x="1345" y="1330" width="140" height="61" as="geometry" />
        </mxCell>
        <mxCell id="mBq-_NJuJj3De-6gyGRU-84" value="" style="edgeStyle=orthogonalEdgeStyle;rounded=0;orthogonalLoop=1;jettySize=auto;html=1;" edge="1" parent="WIyWlLk6GJQsqaUBKTNV-1" source="mBq-_NJuJj3De-6gyGRU-72" target="mBq-_NJuJj3De-6gyGRU-83">
          <mxGeometry relative="1" as="geometry" />
        </mxCell>
        <mxCell id="mBq-_NJuJj3De-6gyGRU-85" style="edgeStyle=orthogonalEdgeStyle;rounded=0;orthogonalLoop=1;jettySize=auto;html=1;" edge="1" parent="WIyWlLk6GJQsqaUBKTNV-1" source="mBq-_NJuJj3De-6gyGRU-72" target="mBq-_NJuJj3De-6gyGRU-78">
          <mxGeometry relative="1" as="geometry">
            <mxPoint x="1415" y="1600" as="targetPoint" />
          </mxGeometry>
        </mxCell>
        <mxCell id="mBq-_NJuJj3De-6gyGRU-72" value="处理退虚拟班名额" style="rounded=1;whiteSpace=wrap;html=1;" vertex="1" parent="WIyWlLk6GJQsqaUBKTNV-1">
          <mxGeometry x="1345" y="1470" width="140" height="61" as="geometry" />
        </mxCell>
        <mxCell id="mBq-_NJuJj3De-6gyGRU-114" style="edgeStyle=orthogonalEdgeStyle;rounded=0;orthogonalLoop=1;jettySize=auto;html=1;" edge="1" parent="WIyWlLk6GJQsqaUBKTNV-1" source="mBq-_NJuJj3De-6gyGRU-76" target="mBq-_NJuJj3De-6gyGRU-113">
          <mxGeometry relative="1" as="geometry" />
        </mxCell>
        <mxCell id="mBq-_NJuJj3De-6gyGRU-116" style="edgeStyle=orthogonalEdgeStyle;rounded=0;orthogonalLoop=1;jettySize=auto;html=1;" edge="1" parent="WIyWlLk6GJQsqaUBKTNV-1" source="mBq-_NJuJj3De-6gyGRU-76" target="mBq-_NJuJj3De-6gyGRU-112">
          <mxGeometry relative="1" as="geometry" />
        </mxCell>
        <mxCell id="mBq-_NJuJj3De-6gyGRU-76" value="删除缓存：&lt;br&gt;&lt;div style=&quot;text-align: left&quot;&gt;&lt;span&gt;1，课程列表缓存&lt;/span&gt;&lt;/div&gt;&lt;div style=&quot;text-align: left&quot;&gt;&lt;span&gt;2，续报课程列表缓存&lt;/span&gt;&lt;/div&gt;&lt;div style=&quot;text-align: left&quot;&gt;&lt;span&gt;3，条件课缓存（续报）&lt;/span&gt;&lt;/div&gt;" style="rounded=1;whiteSpace=wrap;html=1;" vertex="1" parent="WIyWlLk6GJQsqaUBKTNV-1">
          <mxGeometry x="1350" y="2300" width="140" height="61" as="geometry" />
        </mxCell>
        <mxCell id="mBq-_NJuJj3De-6gyGRU-88" value="" style="edgeStyle=orthogonalEdgeStyle;rounded=0;orthogonalLoop=1;jettySize=auto;html=1;" edge="1" parent="WIyWlLk6GJQsqaUBKTNV-1" source="mBq-_NJuJj3De-6gyGRU-78" target="mBq-_NJuJj3De-6gyGRU-86">
          <mxGeometry relative="1" as="geometry" />
        </mxCell>
        <mxCell id="mBq-_NJuJj3De-6gyGRU-89" style="edgeStyle=orthogonalEdgeStyle;rounded=0;orthogonalLoop=1;jettySize=auto;html=1;" edge="1" parent="WIyWlLk6GJQsqaUBKTNV-1" source="mBq-_NJuJj3De-6gyGRU-78" target="mBq-_NJuJj3De-6gyGRU-77">
          <mxGeometry relative="1" as="geometry" />
        </mxCell>
        <mxCell id="mBq-_NJuJj3De-6gyGRU-78" value="处理临调实体班的临调学员" style="rounded=1;whiteSpace=wrap;html=1;" vertex="1" parent="WIyWlLk6GJQsqaUBKTNV-1">
          <mxGeometry x="1345" y="1620" width="140" height="61" as="geometry" />
        </mxCell>
        <mxCell id="mBq-_NJuJj3De-6gyGRU-82" value="旧班级，旧小组，及学员关系，&lt;br&gt;组下学员数，班下学员数等等一些列缓存&lt;br&gt;新的班级，小组，学员关系缓存，及学员数缓存" style="text;html=1;align=left;verticalAlign=middle;resizable=0;points=[];autosize=1;fillColor=#FFF2CC;direction=west;" vertex="1" parent="WIyWlLk6GJQsqaUBKTNV-1">
          <mxGeometry x="1055" y="1335.5" width="270" height="50" as="geometry" />
        </mxCell>
        <mxCell id="mBq-_NJuJj3De-6gyGRU-83" value="此处可选择优化，&lt;br&gt;目前全部循环退名额了&lt;br&gt;可选择调过场的退名额，退虚拟班" style="text;html=1;align=center;verticalAlign=middle;resizable=0;points=[];autosize=1;fillColor=#FFF2CC;" vertex="1" parent="WIyWlLk6GJQsqaUBKTNV-1">
          <mxGeometry x="1105" y="1475.5" width="200" height="50" as="geometry" />
        </mxCell>
        <mxCell id="mBq-_NJuJj3De-6gyGRU-86" value="此处可以和上面，处理虚拟班的，放一起处理更好" style="text;html=1;align=center;verticalAlign=middle;resizable=0;points=[];autosize=1;fillColor=#FFF2CC;" vertex="1" parent="WIyWlLk6GJQsqaUBKTNV-1">
          <mxGeometry x="1020" y="1640.5" width="280" height="20" as="geometry" />
        </mxCell>
        <mxCell id="mBq-_NJuJj3De-6gyGRU-101" style="edgeStyle=orthogonalEdgeStyle;rounded=0;orthogonalLoop=1;jettySize=auto;html=1;" edge="1" parent="WIyWlLk6GJQsqaUBKTNV-1" source="mBq-_NJuJj3De-6gyGRU-92" target="mBq-_NJuJj3De-6gyGRU-100">
          <mxGeometry relative="1" as="geometry" />
        </mxCell>
        <mxCell id="mBq-_NJuJj3De-6gyGRU-102" style="edgeStyle=orthogonalEdgeStyle;rounded=0;orthogonalLoop=1;jettySize=auto;html=1;" edge="1" parent="WIyWlLk6GJQsqaUBKTNV-1" source="mBq-_NJuJj3De-6gyGRU-92" target="mBq-_NJuJj3De-6gyGRU-97">
          <mxGeometry relative="1" as="geometry" />
        </mxCell>
        <mxCell id="mBq-_NJuJj3De-6gyGRU-92" value="更改课程限额（调入课，调出课）" style="rounded=1;whiteSpace=wrap;html=1;" vertex="1" parent="WIyWlLk6GJQsqaUBKTNV-1">
          <mxGeometry x="1313.75" y="2610" width="212.5" height="46" as="geometry" />
        </mxCell>
        <mxCell id="mBq-_NJuJj3De-6gyGRU-103" style="edgeStyle=orthogonalEdgeStyle;rounded=0;orthogonalLoop=1;jettySize=auto;html=1;" edge="1" parent="WIyWlLk6GJQsqaUBKTNV-1" source="mBq-_NJuJj3De-6gyGRU-93" target="mBq-_NJuJj3De-6gyGRU-104">
          <mxGeometry relative="1" as="geometry">
            <mxPoint x="1415" y="2020" as="targetPoint" />
          </mxGeometry>
        </mxCell>
        <mxCell id="mBq-_NJuJj3De-6gyGRU-93" value="（队列）学习班级信息同步" style="rounded=1;whiteSpace=wrap;html=1;" vertex="1" parent="WIyWlLk6GJQsqaUBKTNV-1">
          <mxGeometry x="1340" y="1900" width="150" height="60" as="geometry" />
        </mxCell>
        <mxCell id="mBq-_NJuJj3De-6gyGRU-119" style="edgeStyle=orthogonalEdgeStyle;rounded=0;orthogonalLoop=1;jettySize=auto;html=1;" edge="1" parent="WIyWlLk6GJQsqaUBKTNV-1" source="mBq-_NJuJj3De-6gyGRU-97" target="mBq-_NJuJj3De-6gyGRU-12">
          <mxGeometry relative="1" as="geometry" />
        </mxCell>
        <mxCell id="mBq-_NJuJj3De-6gyGRU-97" value="删除学生指定年级学科的课程ID缓存&lt;br&gt;（此逻辑确认不维护）" style="rounded=1;whiteSpace=wrap;html=1;shadow=1;fillColor=#FFCCCC;arcSize=18;" vertex="1" parent="WIyWlLk6GJQsqaUBKTNV-1">
          <mxGeometry x="1305" y="2732" width="230" height="81" as="geometry" />
        </mxCell>
        <mxCell id="mBq-_NJuJj3De-6gyGRU-100" value="此处的逻辑目前线上是否有用" style="text;html=1;align=center;verticalAlign=middle;resizable=0;points=[];autosize=1;fillColor=#FFF2CC;" vertex="1" parent="WIyWlLk6GJQsqaUBKTNV-1">
          <mxGeometry x="1065" y="2623" width="170" height="20" as="geometry" />
        </mxCell>
        <mxCell id="mBq-_NJuJj3De-6gyGRU-105" style="edgeStyle=orthogonalEdgeStyle;rounded=0;orthogonalLoop=1;jettySize=auto;html=1;exitX=0;exitY=0.5;exitDx=0;exitDy=0;" edge="1" parent="WIyWlLk6GJQsqaUBKTNV-1" source="mBq-_NJuJj3De-6gyGRU-104" target="mBq-_NJuJj3De-6gyGRU-106">
          <mxGeometry relative="1" as="geometry">
            <mxPoint x="1285" y="2069.529411764706" as="targetPoint" />
          </mxGeometry>
        </mxCell>
        <mxCell id="mBq-_NJuJj3De-6gyGRU-107" style="edgeStyle=orthogonalEdgeStyle;rounded=0;orthogonalLoop=1;jettySize=auto;html=1;" edge="1" parent="WIyWlLk6GJQsqaUBKTNV-1" source="mBq-_NJuJj3De-6gyGRU-104">
          <mxGeometry relative="1" as="geometry">
            <mxPoint x="1415" y="2160" as="targetPoint" />
          </mxGeometry>
        </mxCell>
        <mxCell id="mBq-_NJuJj3De-6gyGRU-104" value="（队列）推送物流队列" style="rounded=1;whiteSpace=wrap;html=1;" vertex="1" parent="WIyWlLk6GJQsqaUBKTNV-1">
          <mxGeometry x="1340" y="2039" width="150" height="60" as="geometry" />
        </mxCell>
        <mxCell id="mBq-_NJuJj3De-6gyGRU-106" value="为啥同大纲要推送物流队列啊，是否有用" style="text;html=1;align=center;verticalAlign=middle;resizable=0;points=[];autosize=1;fillColor=#FFF2CC;" vertex="1" parent="WIyWlLk6GJQsqaUBKTNV-1">
          <mxGeometry x="1040" y="2059" width="230" height="20" as="geometry" />
        </mxCell>
        <mxCell id="mBq-_NJuJj3De-6gyGRU-110" style="edgeStyle=orthogonalEdgeStyle;rounded=0;orthogonalLoop=1;jettySize=auto;html=1;" edge="1" parent="WIyWlLk6GJQsqaUBKTNV-1" source="mBq-_NJuJj3De-6gyGRU-108" target="mBq-_NJuJj3De-6gyGRU-109">
          <mxGeometry relative="1" as="geometry" />
        </mxCell>
        <mxCell id="mBq-_NJuJj3De-6gyGRU-115" style="edgeStyle=orthogonalEdgeStyle;rounded=0;orthogonalLoop=1;jettySize=auto;html=1;" edge="1" parent="WIyWlLk6GJQsqaUBKTNV-1" source="mBq-_NJuJj3De-6gyGRU-108" target="mBq-_NJuJj3De-6gyGRU-76">
          <mxGeometry relative="1" as="geometry" />
        </mxCell>
        <mxCell id="mBq-_NJuJj3De-6gyGRU-108" value="删除学习中心列表缓存" style="rounded=1;whiteSpace=wrap;html=1;" vertex="1" parent="WIyWlLk6GJQsqaUBKTNV-1">
          <mxGeometry x="1350" y="2160" width="140" height="61" as="geometry" />
        </mxCell>
        <mxCell id="mBq-_NJuJj3De-6gyGRU-109" value="此处缓存是否有用（&lt;span style=&quot;color: rgb(147 , 161 , 161) ; background-color: rgb(253 , 246 , 227) ; font-family: &amp;#34;menlo&amp;#34; ; font-size: 9.8pt&quot;&gt;delIstudyCache&lt;/span&gt;&lt;span&gt;），待确认&lt;/span&gt;" style="text;html=1;align=center;verticalAlign=middle;resizable=0;points=[];autosize=1;fillColor=#FFF2CC;" vertex="1" parent="WIyWlLk6GJQsqaUBKTNV-1">
          <mxGeometry x="1010" y="2180.5" width="290" height="20" as="geometry" />
        </mxCell>
        <mxCell id="mBq-_NJuJj3De-6gyGRU-118" value="" style="edgeStyle=orthogonalEdgeStyle;rounded=0;orthogonalLoop=1;jettySize=auto;html=1;" edge="1" parent="WIyWlLk6GJQsqaUBKTNV-1" source="mBq-_NJuJj3De-6gyGRU-112" target="mBq-_NJuJj3De-6gyGRU-92">
          <mxGeometry relative="1" as="geometry" />
        </mxCell>
        <mxCell id="mBq-_NJuJj3De-6gyGRU-112" value="（队列）初始化用户课程班级场次所有相关缓存" style="rounded=1;whiteSpace=wrap;html=1;" vertex="1" parent="WIyWlLk6GJQsqaUBKTNV-1">
          <mxGeometry x="1345" y="2440" width="150" height="60" as="geometry" />
        </mxCell>
        <mxCell id="mBq-_NJuJj3De-6gyGRU-113" value="此处3个缓存是否有用&lt;span&gt;，待确认&lt;/span&gt;" style="text;html=1;align=center;verticalAlign=middle;resizable=0;points=[];autosize=1;fillColor=#FFF2CC;" vertex="1" parent="WIyWlLk6GJQsqaUBKTNV-1">
          <mxGeometry x="1095" y="2320.5" width="180" height="20" as="geometry" />
        </mxCell>
        <mxCell id="mBq-_NJuJj3De-6gyGRU-128" style="edgeStyle=orthogonalEdgeStyle;rounded=0;orthogonalLoop=1;jettySize=auto;html=1;entryX=0.5;entryY=0;entryDx=0;entryDy=0;" edge="1" parent="WIyWlLk6GJQsqaUBKTNV-1" source="mBq-_NJuJj3De-6gyGRU-121" target="mBq-_NJuJj3De-6gyGRU-42">
          <mxGeometry relative="1" as="geometry" />
        </mxCell>
        <mxCell id="mBq-_NJuJj3De-6gyGRU-121" value="获取要调入课程的小组" style="rounded=1;whiteSpace=wrap;html=1;" vertex="1" parent="WIyWlLk6GJQsqaUBKTNV-1">
          <mxGeometry x="284" y="1369" width="136" height="60" as="geometry" />
        </mxCell>
        <mxCell id="mBq-_NJuJj3De-6gyGRU-126" style="edgeStyle=orthogonalEdgeStyle;rounded=0;orthogonalLoop=1;jettySize=auto;html=1;exitX=0.5;exitY=1;exitDx=0;exitDy=0;" edge="1" parent="WIyWlLk6GJQsqaUBKTNV-1" source="mBq-_NJuJj3De-6gyGRU-122" target="mBq-_NJuJj3De-6gyGRU-121">
          <mxGeometry relative="1" as="geometry" />
        </mxCell>
        <mxCell id="mBq-_NJuJj3De-6gyGRU-122" value="得到要临调的场次" style="rounded=1;whiteSpace=wrap;html=1;" vertex="1" parent="WIyWlLk6GJQsqaUBKTNV-1">
          <mxGeometry x="178" y="1219" width="120" height="60" as="geometry" />
        </mxCell>
        <mxCell id="mBq-_NJuJj3De-6gyGRU-127" style="edgeStyle=orthogonalEdgeStyle;rounded=0;orthogonalLoop=1;jettySize=auto;html=1;" edge="1" parent="WIyWlLk6GJQsqaUBKTNV-1" source="mBq-_NJuJj3De-6gyGRU-123" target="mBq-_NJuJj3De-6gyGRU-121">
          <mxGeometry relative="1" as="geometry" />
        </mxCell>
        <mxCell id="mBq-_NJuJj3De-6gyGRU-123" value="得到要调课的场次" style="rounded=1;whiteSpace=wrap;html=1;" vertex="1" parent="WIyWlLk6GJQsqaUBKTNV-1">
          <mxGeometry x="398" y="1219" width="120" height="60" as="geometry" />
        </mxCell>
        <mxCell id="mBq-_NJuJj3De-6gyGRU-125" value="&lt;span style=&quot;color: rgb(108 , 113 , 196) ; background-color: rgb(253 , 246 , 227) ; font-family: &amp;#34;menlo&amp;#34; ; font-size: 9.8pt&quot;&gt;_tempChangePlan&amp;nbsp;&amp;nbsp;&lt;br&gt;&lt;div style=&quot;text-align: left&quot;&gt;&lt;span style=&quot;color: rgb(203 , 75 , 22) ; font-family: &amp;#34;menlo&amp;#34; , &amp;#34;monaco&amp;#34; , &amp;#34;courier new&amp;#34; , monospace ; font-size: 12px&quot;&gt;临调场次的作业上交在原场次课程辅导老师的班级中&lt;/span&gt;&lt;/div&gt;&lt;/span&gt;" style="text;html=1;align=center;verticalAlign=middle;resizable=0;points=[];autosize=1;" vertex="1" parent="WIyWlLk6GJQsqaUBKTNV-1">
          <mxGeometry x="46" y="1154" width="290" height="30" as="geometry" />
        </mxCell>
        <mxCell id="mBq-_NJuJj3De-6gyGRU-130" value="&lt;pre style=&quot;background-color: #fdf6e3 ; color: #657b83 ; font-family: &amp;#34;menlo&amp;#34; ; font-size: 9.8pt&quot;&gt;&lt;pre style=&quot;font-family: &amp;#34;menlo&amp;#34; ; font-size: 9.8pt&quot;&gt;&lt;span style=&quot;color: #93a1a1 ; font-style: italic&quot;&gt;删除学员下在学课程&lt;/span&gt;&lt;/pre&gt;&lt;/pre&gt;&lt;pre style=&quot;background-color: #fdf6e3 ; color: #657b83 ; font-family: &amp;#34;menlo&amp;#34; ; font-size: 9.8pt&quot;&gt;&lt;span style=&quot;color: #93a1a1 ; font-style: italic&quot;&gt;//用户与在学课程ID的关系&lt;br&gt;&lt;div style=&quot;text-align: left&quot;&gt;&lt;span style=&quot;font-size: 9.8pt ; white-space: nowrap ; color: rgb(42 , 161 , 152)&quot;&gt;&#39;stuLearnCouIds&#39; &lt;/span&gt;&lt;span style=&quot;color: rgb(101 , 123 , 131) ; font-size: 9.8pt ; white-space: nowrap&quot;&gt;=&amp;gt; [&lt;/span&gt;&lt;/div&gt;&lt;/span&gt;&lt;div style=&quot;text-align: left&quot;&gt;&lt;span style=&quot;font-size: 9.8pt ; white-space: nowrap&quot;&gt;&lt;/span&gt;&lt;span style=&quot;font-size: 9.8pt ; white-space: nowrap ; color: rgb(42 , 161 , 152)&quot;&gt;&amp;nbsp; &#39;key&#39; &lt;/span&gt;&lt;span style=&quot;font-size: 9.8pt ; white-space: nowrap&quot;&gt;=&amp;gt; &lt;/span&gt;&lt;span style=&quot;font-size: 9.8pt ; white-space: nowrap ; color: rgb(42 , 161 , 152)&quot;&gt;&#39;stu_learn_couid_%d&#39;&lt;/span&gt;&lt;span style=&quot;font-size: 9.8pt ; white-space: nowrap&quot;&gt;,&lt;/span&gt;&lt;/div&gt;&lt;div style=&quot;text-align: left&quot;&gt;&lt;span style=&quot;font-size: 9.8pt ; white-space: nowrap&quot;&gt;&lt;/span&gt;&lt;span style=&quot;font-size: 9.8pt ; white-space: nowrap ; color: rgb(42 , 161 , 152)&quot;&gt;&amp;nbsp; &#39;paramNum&#39; &lt;/span&gt;&lt;span style=&quot;font-size: 9.8pt ; white-space: nowrap&quot;&gt;=&amp;gt; &lt;/span&gt;&lt;span style=&quot;font-size: 9.8pt ; white-space: nowrap ; color: rgb(203 , 75 , 22)&quot;&gt;1&lt;/span&gt;&lt;span style=&quot;font-size: 9.8pt ; white-space: nowrap&quot;&gt;,&lt;/span&gt;&lt;/div&gt;&lt;div style=&quot;text-align: left&quot;&gt;&lt;span style=&quot;font-size: 9.8pt ; white-space: nowrap&quot;&gt;&lt;/span&gt;&lt;span style=&quot;font-size: 9.8pt ; white-space: nowrap ; color: rgb(42 , 161 , 152)&quot;&gt;&amp;nbsp; &#39;type&#39; &lt;/span&gt;&lt;span style=&quot;font-size: 9.8pt ; white-space: nowrap&quot;&gt;=&amp;gt; &lt;/span&gt;&lt;span style=&quot;font-size: 9.8pt ; white-space: nowrap ; color: rgb(42 , 161 , 152)&quot;&gt;&#39;zset&#39;&lt;/span&gt;&lt;span style=&quot;font-size: 9.8pt ; white-space: nowrap&quot;&gt;,&lt;/span&gt;&lt;/div&gt;&lt;div style=&quot;text-align: left&quot;&gt;&lt;span style=&quot;font-size: 9.8pt ; white-space: nowrap&quot;&gt;&lt;/span&gt;&lt;span style=&quot;font-size: 9.8pt ; white-space: nowrap ; color: rgb(42 , 161 , 152)&quot;&gt;&amp;nbsp; &#39;redisEngine&#39; &lt;/span&gt;&lt;span style=&quot;font-size: 9.8pt ; white-space: nowrap&quot;&gt;=&amp;gt; &lt;/span&gt;&lt;span style=&quot;font-size: 9.8pt ; white-space: nowrap ; color: rgb(42 , 161 , 152)&quot;&gt;&#39;redisstucou&#39;&lt;/span&gt;&lt;span style=&quot;font-size: 9.8pt ; white-space: nowrap&quot;&gt;,&lt;/span&gt;&lt;/div&gt;&lt;div style=&quot;text-align: left&quot;&gt;&lt;span style=&quot;font-size: 9.8pt ; white-space: nowrap&quot;&gt;],&lt;/span&gt;&lt;/div&gt;&lt;/pre&gt;" style="text;html=1;align=center;verticalAlign=middle;resizable=0;points=[];autosize=1;" vertex="1" parent="WIyWlLk6GJQsqaUBKTNV-1">
          <mxGeometry x="1785" y="975" width="280" height="160" as="geometry" />
        </mxCell>
        <mxCell id="mBq-_NJuJj3De-6gyGRU-131" value="&lt;pre style=&quot;background-color: #fdf6e3 ; color: #657b83 ; font-family: &amp;#34;menlo&amp;#34; ; font-size: 9.8pt&quot;&gt;&lt;pre style=&quot;font-family: &amp;#34;menlo&amp;#34; ; font-size: 9.8pt&quot;&gt;&lt;span style=&quot;color: #93a1a1 ; font-style: italic&quot;&gt;删除学员下购课时间&lt;/span&gt;&lt;/pre&gt;&lt;/pre&gt;&lt;pre style=&quot;background-color: rgb(253 , 246 , 227) ; font-family: &amp;#34;menlo&amp;#34; ; font-size: 9.8pt&quot;&gt;&lt;span style=&quot;color: rgb(101 , 123 , 131)&quot;&gt;&lt;span style=&quot;color: #93a1a1 ; font-style: italic&quot;&gt;// 学生课程创建时间&lt;br&gt;&lt;div style=&quot;text-align: left&quot;&gt;&lt;span style=&quot;font-size: 9.8pt ; white-space: nowrap ; color: rgb(101 , 123 , 131)&quot;&gt;&lt;span style=&quot;color: #2aa198&quot;&gt;&#39;stuCourseBuyTime&#39; &lt;/span&gt;=&amp;gt; &lt;/span&gt;&lt;font color=&quot;#859900&quot; style=&quot;font-size: 9.8pt ; white-space: nowrap&quot;&gt;[&lt;/font&gt;&lt;/div&gt;&lt;/span&gt;&lt;/span&gt;&lt;font color=&quot;#657b83&quot;&gt;&lt;div style=&quot;text-align: left&quot;&gt;&lt;font color=&quot;#657b83&quot; style=&quot;font-size: 9.8pt ; white-space: nowrap&quot;&gt;&lt;/font&gt;&lt;span style=&quot;font-size: 9.8pt ; white-space: nowrap ; color: rgb(42 , 161 , 152)&quot;&gt;&amp;nbsp; &#39;key&#39; &lt;/span&gt;&lt;font color=&quot;#657b83&quot; style=&quot;font-size: 9.8pt ; white-space: nowrap&quot;&gt;=&amp;gt; &lt;/font&gt;&lt;span style=&quot;font-size: 9.8pt ; white-space: nowrap ; color: rgb(42 , 161 , 152)&quot;&gt;&#39;stucou_buy_time_%d&#39;&lt;/span&gt;&lt;font color=&quot;#657b83&quot; style=&quot;font-size: 9.8pt ; white-space: nowrap&quot;&gt;,&lt;/font&gt;&lt;/div&gt;&lt;/font&gt;&lt;font color=&quot;#657b83&quot;&gt;&lt;div style=&quot;text-align: left&quot;&gt;&lt;font color=&quot;#657b83&quot; style=&quot;font-size: 9.8pt ; white-space: nowrap&quot;&gt;&lt;/font&gt;&lt;span style=&quot;font-size: 9.8pt ; white-space: nowrap ; color: rgb(42 , 161 , 152)&quot;&gt;&amp;nbsp; &#39;paramNum&#39; &lt;/span&gt;&lt;font color=&quot;#657b83&quot; style=&quot;font-size: 9.8pt ; white-space: nowrap&quot;&gt;=&amp;gt; &lt;/font&gt;&lt;span style=&quot;font-size: 9.8pt ; white-space: nowrap ; color: rgb(203 , 75 , 22)&quot;&gt;1&lt;/span&gt;&lt;font color=&quot;#657b83&quot; style=&quot;font-size: 9.8pt ; white-space: nowrap&quot;&gt;,&lt;/font&gt;&lt;/div&gt;&lt;/font&gt;&lt;font color=&quot;#657b83&quot;&gt;&lt;div style=&quot;text-align: left&quot;&gt;&lt;font color=&quot;#657b83&quot; style=&quot;font-size: 9.8pt ; white-space: nowrap&quot;&gt;&lt;/font&gt;&lt;span style=&quot;font-size: 9.8pt ; white-space: nowrap ; color: rgb(42 , 161 , 152)&quot;&gt;&amp;nbsp; &#39;type&#39; &lt;/span&gt;&lt;font color=&quot;#657b83&quot; style=&quot;font-size: 9.8pt ; white-space: nowrap&quot;&gt;=&amp;gt; &lt;/font&gt;&lt;span style=&quot;font-size: 9.8pt ; white-space: nowrap ; color: rgb(42 , 161 , 152)&quot;&gt;&#39;zset&#39;&lt;/span&gt;&lt;font color=&quot;#657b83&quot; style=&quot;font-size: 9.8pt ; white-space: nowrap&quot;&gt;,&lt;/font&gt;&lt;/div&gt;&lt;/font&gt;&lt;font color=&quot;#657b83&quot;&gt;&lt;div style=&quot;text-align: left&quot;&gt;&lt;font color=&quot;#657b83&quot; style=&quot;font-size: 9.8pt ; white-space: nowrap&quot;&gt;&lt;/font&gt;&lt;span style=&quot;font-size: 9.8pt ; white-space: nowrap ; color: rgb(42 , 161 , 152)&quot;&gt;&amp;nbsp; &#39;redisEngine&#39; &lt;/span&gt;&lt;font color=&quot;#657b83&quot; style=&quot;font-size: 9.8pt ; white-space: nowrap&quot;&gt;=&amp;gt; &lt;/font&gt;&lt;span style=&quot;font-size: 9.8pt ; white-space: nowrap ; color: rgb(42 , 161 , 152)&quot;&gt;&#39;redisstucou&#39;&lt;/span&gt;&lt;/div&gt;&lt;/font&gt;&lt;font color=&quot;#657b83&quot;&gt;&lt;div style=&quot;text-align: left&quot;&gt;&lt;span style=&quot;font-size: 9.8pt ; white-space: nowrap&quot;&gt;],&lt;/span&gt;&lt;/div&gt;&lt;/font&gt;&lt;/pre&gt;" style="text;html=1;align=center;verticalAlign=middle;resizable=0;points=[];autosize=1;" vertex="1" parent="WIyWlLk6GJQsqaUBKTNV-1">
          <mxGeometry x="1785" y="1150" width="270" height="160" as="geometry" />
        </mxCell>
        <mxCell id="mBq-_NJuJj3De-6gyGRU-132" value="&lt;pre style=&quot;background-color: #fdf6e3 ; color: #657b83 ; font-family: &amp;#34;menlo&amp;#34; ; font-size: 9.8pt&quot;&gt;&lt;pre style=&quot;font-family: &amp;#34;menlo&amp;#34; ; font-size: 9.8pt&quot;&gt;&lt;span style=&quot;color: #93a1a1 ; font-style: italic&quot;&gt;删除学员下学生全部课程&lt;/span&gt;&lt;/pre&gt;&lt;/pre&gt;&lt;pre style=&quot;background-color: rgb(253 , 246 , 227) ; font-family: &amp;#34;menlo&amp;#34; ; font-size: 9.8pt&quot;&gt;&lt;span style=&quot;font-style: italic&quot;&gt;&lt;font color=&quot;#93a1a1&quot;&gt;//用户与所有课程ID的关系&lt;br&gt;&lt;/font&gt;&lt;div style=&quot;text-align: left&quot;&gt;&lt;span style=&quot;color: rgb(42 , 161 , 152) ; font-size: 9.8pt ; white-space: nowrap&quot;&gt;&#39;stuAllCouIds&#39; &lt;/span&gt;&lt;span style=&quot;color: rgb(101 , 123 , 131) ; font-size: 9.8pt ; white-space: nowrap&quot;&gt;=&amp;gt; &lt;/span&gt;&lt;span style=&quot;font-size: 9.8pt ; white-space: nowrap&quot;&gt;&lt;font color=&quot;#859900&quot;&gt;[&lt;/font&gt;&lt;/span&gt;&lt;/div&gt;&lt;/span&gt;&lt;div style=&quot;color: rgb(101 , 123 , 131) ; text-align: left&quot;&gt;&lt;span style=&quot;font-size: 9.8pt ; white-space: nowrap&quot;&gt;&lt;/span&gt;&lt;span style=&quot;font-size: 9.8pt ; white-space: nowrap ; color: rgb(42 , 161 , 152)&quot;&gt;&amp;nbsp; &#39;key&#39; &lt;/span&gt;&lt;span style=&quot;font-size: 9.8pt ; white-space: nowrap&quot;&gt;=&amp;gt; &lt;/span&gt;&lt;span style=&quot;font-size: 9.8pt ; white-space: nowrap ; color: rgb(42 , 161 , 152)&quot;&gt;&#39;stu_all_couid_%d&#39;&lt;/span&gt;&lt;span style=&quot;font-size: 9.8pt ; white-space: nowrap&quot;&gt;,&lt;/span&gt;&lt;/div&gt;&lt;div style=&quot;color: rgb(101 , 123 , 131) ; text-align: left&quot;&gt;&lt;span style=&quot;font-size: 9.8pt ; white-space: nowrap&quot;&gt;&lt;/span&gt;&lt;span style=&quot;font-size: 9.8pt ; white-space: nowrap ; color: rgb(42 , 161 , 152)&quot;&gt;&amp;nbsp; &#39;paramNum&#39; &lt;/span&gt;&lt;span style=&quot;font-size: 9.8pt ; white-space: nowrap&quot;&gt;=&amp;gt; &lt;/span&gt;&lt;span style=&quot;font-size: 9.8pt ; white-space: nowrap ; color: rgb(203 , 75 , 22)&quot;&gt;1&lt;/span&gt;&lt;span style=&quot;font-size: 9.8pt ; white-space: nowrap&quot;&gt;,&lt;/span&gt;&lt;/div&gt;&lt;div style=&quot;color: rgb(101 , 123 , 131) ; text-align: left&quot;&gt;&lt;span style=&quot;font-size: 9.8pt ; white-space: nowrap&quot;&gt;&lt;/span&gt;&lt;span style=&quot;font-size: 9.8pt ; white-space: nowrap ; color: rgb(42 , 161 , 152)&quot;&gt;&amp;nbsp; &#39;type&#39; &lt;/span&gt;&lt;span style=&quot;font-size: 9.8pt ; white-space: nowrap&quot;&gt;=&amp;gt; &lt;/span&gt;&lt;span style=&quot;font-size: 9.8pt ; white-space: nowrap ; color: rgb(42 , 161 , 152)&quot;&gt;&#39;zset&#39;&lt;/span&gt;&lt;span style=&quot;font-size: 9.8pt ; white-space: nowrap&quot;&gt;,&lt;/span&gt;&lt;/div&gt;&lt;div style=&quot;color: rgb(101 , 123 , 131) ; text-align: left&quot;&gt;&lt;span style=&quot;font-size: 9.8pt ; white-space: nowrap&quot;&gt;&lt;/span&gt;&lt;span style=&quot;font-size: 9.8pt ; white-space: nowrap ; color: rgb(42 , 161 , 152)&quot;&gt;&amp;nbsp; &#39;redisEngine&#39; &lt;/span&gt;&lt;span style=&quot;font-size: 9.8pt ; white-space: nowrap&quot;&gt;=&amp;gt; &lt;/span&gt;&lt;span style=&quot;font-size: 9.8pt ; white-space: nowrap ; color: rgb(42 , 161 , 152)&quot;&gt;&#39;redisstucou&#39;&lt;/span&gt;&lt;span style=&quot;font-size: 9.8pt ; white-space: nowrap&quot;&gt;,&lt;/span&gt;&lt;/div&gt;&lt;div style=&quot;color: rgb(101 , 123 , 131) ; text-align: left&quot;&gt;&lt;span style=&quot;font-size: 9.8pt ; white-space: nowrap&quot;&gt;],&lt;/span&gt;&lt;/div&gt;&lt;/pre&gt;&lt;pre style=&quot;background-color: #fdf6e3 ; color: #657b83 ; font-family: &amp;#34;menlo&amp;#34; ; font-size: 9.8pt&quot;&gt;&lt;span style=&quot;font-size: 9.8pt ; white-space: nowrap&quot;&gt;感觉此处缓存在疑虑，是否有存在必要&lt;/span&gt;&lt;br&gt;&lt;/pre&gt;" style="text;html=1;align=center;verticalAlign=middle;resizable=0;points=[];autosize=1;" vertex="1" parent="WIyWlLk6GJQsqaUBKTNV-1">
          <mxGeometry x="1785" y="1320" width="280" height="180" as="geometry" />
        </mxCell>
        <mxCell id="mBq-_NJuJj3De-6gyGRU-134" value="删除三个集合缓存&lt;br&gt;新增三个集合缓存&lt;br&gt;&lt;div style=&quot;text-align: left&quot;&gt;&lt;span&gt;1，stu_learn_couid_%d&lt;/span&gt;&lt;/div&gt;&lt;div style=&quot;text-align: left&quot;&gt;&lt;span&gt;2，stucou_buy_time_%d&lt;/span&gt;&lt;/div&gt;&lt;div style=&quot;text-align: left&quot;&gt;&lt;span&gt;3，stu_all_couid_%d&lt;/span&gt;&lt;/div&gt;&lt;br&gt;" style="text;html=1;align=center;verticalAlign=middle;resizable=0;points=[];autosize=1;fillColor=#FFF2CC;" vertex="1" parent="WIyWlLk6GJQsqaUBKTNV-1">
          <mxGeometry x="1610" y="1175.5" width="150" height="90" as="geometry" />
        </mxCell>
        <mxCell id="mBq-_NJuJj3De-6gyGRU-135" value="&lt;div style=&quot;color: rgb(51 , 51 , 51) ; background-color: rgb(253 , 246 , 227) ; font-family: &amp;#34;menlo&amp;#34; , &amp;#34;monaco&amp;#34; , &amp;#34;courier new&amp;#34; , monospace ; line-height: 18px&quot;&gt;&lt;div&gt;&lt;span style=&quot;color: #d33682&quot;&gt;1&lt;/span&gt;&lt;span style=&quot;color: #cb4b16&quot;&gt;，删除stucouid下面有哪些标准场次id，（zset）&lt;/span&gt;&lt;span style=&quot;color: #2aa198&quot;&gt;&#39;stu_course_std_plan_id_%d&#39;&lt;/span&gt;&lt;/div&gt;&lt;br&gt;&lt;div&gt;&lt;span style=&quot;color: #d33682&quot;&gt;2&lt;/span&gt;&lt;span style=&quot;color: #cb4b16&quot;&gt;，删缓存，这个缓存为啥zset，为啥要有这个缓存，更看不懂了，（zset）学生标准场次的stucouid：&lt;/span&gt;&lt;/div&gt;&lt;div&gt;&lt;span style=&quot;color: #2aa198&quot;&gt;&#39;stu_std_plan_stu_cou_id_%d_%d&#39;&lt;/span&gt;&lt;span style=&quot;color: #657b83&quot;&gt; &lt;/span&gt;&lt;span style=&quot;color: #cb4b16&quot;&gt;（key&lt;/span&gt;&lt;span style=&quot;color: #657b83&quot;&gt;:&lt;/span&gt;&lt;span style=&quot;color: #cb4b16&quot;&gt;stuid&lt;/span&gt;&lt;span style=&quot;color: #859900&quot;&gt;+&lt;/span&gt;&lt;span style=&quot;color: #cb4b16&quot;&gt;planid；&lt;/span&gt;&lt;span style=&quot;color: #657b83&quot;&gt; &lt;/span&gt;&lt;span style=&quot;color: #cb4b16&quot;&gt;score&lt;/span&gt;&lt;span style=&quot;color: #657b83&quot;&gt;:&lt;/span&gt;&lt;span style=&quot;color: #cb4b16&quot;&gt;学生场次表自增id；value&lt;/span&gt;&lt;span style=&quot;color: #657b83&quot;&gt;:&lt;/span&gt;&lt;span style=&quot;color: #cb4b16&quot;&gt;stucouid）&lt;/span&gt;&lt;/div&gt;&lt;br&gt;&lt;div&gt;&lt;span style=&quot;color: #d33682&quot;&gt;3&lt;/span&gt;&lt;span style=&quot;color: #cb4b16&quot;&gt;，删除学生场次表基础缓存，（hash）&lt;/span&gt;&lt;span style=&quot;color: #2aa198&quot;&gt;&#39;stu_live_plan_info_%d&#39;&lt;/span&gt;&lt;span style=&quot;color: #657b83&quot;&gt; &lt;/span&gt;&lt;span style=&quot;color: #cb4b16&quot;&gt;用户场次表的缓存，应该没啥用&lt;/span&gt;&lt;/div&gt;&lt;/div&gt;" style="text;html=1;align=left;verticalAlign=middle;resizable=0;points=[];autosize=1;" vertex="1" parent="WIyWlLk6GJQsqaUBKTNV-1">
          <mxGeometry x="1595" y="725.5" width="660" height="110" as="geometry" />
        </mxCell>
      </root>
    </mxGraphModel>
  </diagram>
</mxfile>
